<?xml version="1.0" encoding="utf-8"?>
<!-- Generator: Adobe Illustrator 25.2.3, SVG Export Plug-In . SVG Version: 6.00 Build 0)  -->
<svg version="1.1"
	 id="Layer_1" xmlns:cc="http://creativecommons.org/ns#" xmlns:dc="http://purl.org/dc/elements/1.1/" xmlns:inkscape="http://www.inkscape.org/namespaces/inkscape" xmlns:rdf="http://www.w3.org/1999/02/22-rdf-syntax-ns#" xmlns:sodipodi="http://sodipodi.sourceforge.net/DTD/sodipodi-0.dtd" xmlns:svg="http://www.w3.org/2000/svg"
	 xmlns="http://www.w3.org/2000/svg" xmlns:xlink="http://www.w3.org/1999/xlink" x="0px" y="0px" viewBox="0 0 100 125"
	 style="enable-background:new 0 0 100 125;" xml:space="preserve">
<style type="text/css">
	.st0{fill-rule:evenodd;clip-rule:evenodd;fill:#FFFFFF;}
</style>
<g transform="translate(0,-952.36218)">
	<path class="st0" d="M50,958.4c-1,0-1.9,0.7-2,1.7l-3.2,21c0,0,0,0,0,0l-2.1,14l-14,2.1l0,0l-21,3.2c-1.1,0.2-1.8,1.2-1.7,2.3
		c0.1,0.9,0.8,1.5,1.7,1.7l21,3.2c0,0,0,0,0,0l14,2.1l2.1,14c0,0,0,0,0,0l3.2,21c0.2,1.1,1.2,1.8,2.3,1.7c0.9-0.1,1.5-0.8,1.7-1.7
		l3.2-21v0l2.1-14l14-2.1c0,0,0,0,0,0l21-3.2c1.1-0.2,1.8-1.2,1.7-2.3c-0.1-0.9-0.8-1.5-1.7-1.7l-21-3.2l0,0l-14-2.1l-2.1-14v0
		l-3.2-21C51.8,959.1,51,958.4,50,958.4L50,958.4z"/>
</g>
</svg>
